Coordinates
version=1
nRows=4
nColumns=114
inDegrees=yes

Units are S.I. units (second, meters, Newtons, ...)
If the header above contains a line with 'inDegrees', this indicates whether rotational values are in degrees (yes) or radians (no).

endheader 
time	pelvis_tilt	pelvis_list	pelvis_rotation	pelvis_tx	pelvis_ty	pelvis_tz	hip_flexion_l	hip_adduction_l	hip_rotation_l	hip_flexion_r	hip_adduction_r	hip_rotation_r	knee_angle_l	knee_angle_r	ankle_angle_l	ankle_angle_r	subtalar_angle_l	subtalar_angle_r	mtp_angle_l	mtp_angle_r	lumbar_extension	lumbar_bending	lumbar_rotation	arm_flex_l	arm_add_l	arm_rot_l	arm_flex_r	arm_add_r	arm_rot_r	elbow_flex_l	elbow_flex_r	pro_sup_l	pro_sup_r	addbrev_l/activation	addlong_l/activation	addmagDist_l/activation	addmagIsch_l/activation	addmagMid_l/activation	addmagProx_l/activation	bflh_l/activation	bfsh_l/activation	edl_l/activation	ehl_l/activation	fdl_l/activation	fhl_l/activation	gaslat_l/activation	gasmed_l/activation	glmax1_l/activation	glmax2_l/activation	glmax3_l/activation	glmed1_l/activation	glmed2_l/activation	glmed3_l/activation	glmin1_l/activation	glmin2_l/activation	glmin3_l/activation	grac_l/activation	iliacus_l/activation	perbrev_l/activation	perlong_l/activation	piri_l/activation	psoas_l/activation	recfem_l/activation	sart_l/activation	semimem_l/activation	semiten_l/activation	soleus_l/activation	tfl_l/activation	tibant_l/activation	tibpost_l/activation	vasint_l/activation	vaslat_l/activation	vasmed_l/activation	addbrev_r/activation	addlong_r/activation	addmagDist_r/activation	addmagIsch_r/activation	addmagMid_r/activation	addmagProx_r/activation	bflh_r/activation	bfsh_r/activation	edl_r/activation	ehl_r/activation	fdl_r/activation	fhl_r/activation	gaslat_r/activation	gasmed_r/activation	glmax1_r/activation	glmax2_r/activation	glmax3_r/activation	glmed1_r/activation	glmed2_r/activation	glmed3_r/activation	glmin1_r/activation	glmin2_r/activation	glmin3_r/activation	grac_r/activation	iliacus_r/activation	perbrev_r/activation	perlong_r/activation	piri_r/activation	psoas_r/activation	recfem_r/activation	sart_r/activation	semimem_r/activation	semiten_r/activation	soleus_r/activation	tfl_r/activation	tibant_r/activation	tibpost_r/activation	vasint_r/activation	vaslat_r/activation	vasmed_r/activation	
          3.84000000	         -4.40514207	         -3.54752580	          6.55317381	          1.68709490	          1.15828850	         -0.01850181	         12.40977805	        -11.85156960	         -3.98350512	         14.63880603	         -5.32451180	         -6.89101605	         20.10088562	         15.55691794	        -28.38339545	        -28.72654547	         -5.82506231	          2.72177813	         -0.32643278	         -0.10291050	         -0.31370751	          0.95288920	          3.11156387	         39.47317521	        -54.01229716	         -2.42657578	         58.57957939	        -46.89658277	         18.82106170	        124.28272609	        120.19614283	         92.63847178	        101.63058502	          0.13614306	          0.14370980	          0.07544192	          0.06068829	          0.09882229	          0.15988412	          0.07306593	          0.22212613	          0.55092018	          0.18897035	          0.12678793	          0.12195530	          0.14248243	          0.10842517	          0.11796087	          0.08031292	          0.06032887	          0.11247713	          0.14616616	          0.17503629	          0.14855818	          0.17777319	          0.18825383	          0.16463031	          0.25676024	          0.17137885	          0.16582135	          0.24127316	          0.27718644	          0.14336764	          0.27008090	          0.06461666	          0.11695365	          0.06025265	          0.18673168	          0.28890332	          0.09126866	          0.05160632	          0.02227000	          0.03955567	          0.15295673	          0.17977428	          0.08187203	          0.06553610	          0.10991179	          0.16446739	          0.07573031	          0.22739597	          0.33744869	          0.20605694	          0.12504199	          0.09535929	          0.09736869	          0.06976858	          0.09856044	          0.06132471	          0.05509381	          0.10872111	          0.13401581	          0.14894273	          0.15133946	          0.17344777	          0.18377244	          0.16846009	          0.29384851	          0.17569489	          0.17858082	          0.23281490	          0.31480943	          0.11374679	          0.27365020	          0.07023643	          0.12101599	          0.04441691	          0.20387861	          0.37017784	          0.06797741	          0.04741468	          0.02072006	          0.03652150	
          3.86000000	         -4.56465172	         -3.85439485	          6.60437746	          1.68559406	          1.13331125	         -0.02103622	         12.51200556	        -12.29057273	         -4.15726114	         15.05985127	         -4.77007754	         -6.47417311	         18.86880416	         15.59049065	        -30.02083599	        -28.51968717	         -5.91374275	          3.29599347	         -0.26812931	         -0.08189171	         -0.52449399	          1.22711048	          3.00788961	         37.56234687	        -53.93284745	         -2.32685473	         56.90809672	        -46.49671704	         18.58951713	        124.15217269	        120.09281576	         92.46436480	        101.30383314	          0.13091204	          0.13427896	          0.07181688	          0.05753245	          0.09431087	          0.15652271	          0.07105156	          0.23066524	          0.68201707	          0.20109489	          0.08747234	          0.10527936	          0.18939248	          0.22391929	          0.11688213	          0.07812189	          0.05799176	          0.10781034	          0.14634730	          0.17696261	          0.14621795	          0.17913808	          0.19099472	          0.16176109	          0.27051368	          0.15801293	          0.11270699	          0.23879560	          0.28620179	          0.15588559	          0.28753268	          0.06174987	          0.11404588	          0.06578738	          0.21487943	          0.28101065	          0.07816471	          0.04853906	          0.02101596	          0.03713678	          0.15084791	          0.17293300	          0.08561468	          0.06917714	          0.11254376	          0.16296377	          0.09120020	          0.23084673	          0.33821286	          0.20418476	          0.12467361	          0.09545854	          0.10295184	          0.07180248	          0.10470774	          0.06657175	          0.05926169	          0.11046924	          0.13622317	          0.15286265	          0.14926405	          0.17094761	          0.18206694	          0.17269612	          0.27650086	          0.17546705	          0.18622742	          0.23797776	          0.29718805	          0.09284087	          0.26640362	          0.09891232	          0.13621848	          0.04098945	          0.20464096	          0.36933426	          0.06827818	          0.04554918	          0.02023366	          0.03515427	
          3.88000000	         -4.62534284	         -4.11833570	          6.70978363	          1.68444712	          1.10471899	         -0.02382492	         12.54146905	        -12.65768556	         -4.64138000	         15.33713341	         -4.28505032	         -6.41385347	         17.92716267	         15.80599361	        -32.08169684	        -28.20341658	         -6.37527750	          3.54493524	         -0.19548424	         -0.05560881	         -0.79677378	          1.46049414	          2.89613642	         35.29972677	        -53.61699653	         -2.24669663	         54.44282697	        -46.24815174	         18.18149172	        124.25544075	        120.05970702	         92.26911828	        100.90486561	          0.13715181	          0.14382173	          0.07333478	          0.05859640	          0.09733091	          0.16389408	          0.07605143	          0.22061945	          0.92279551	          0.28490468	          0.13251971	          0.18103343	          0.23590953	          0.24913857	          0.11310919	          0.07536901	          0.05990662	          0.09686047	          0.13752662	          0.16699370	          0.14107416	          0.17098852	          0.18160281	          0.16522715	          0.26111842	          0.12427288	          0.25784942	          0.21974212	          0.27318116	          0.13646964	          0.26672012	          0.06328813	          0.11628722	          0.05091747	          0.15056487	          0.30509913	          0.17211296	          0.04730609	          0.02102296	          0.03626561	          0.15070469	          0.17278458	          0.08949365	          0.07246292	          0.11605013	          0.16381653	          0.11076772	          0.23484938	          0.34667259	          0.20822851	          0.12045099	          0.09382474	          0.10175145	          0.07585302	          0.11017238	          0.07063738	          0.06325006	          0.10898855	          0.13708970	          0.15600211	          0.14657357	          0.16672937	          0.17891851	          0.17817166	          0.26765454	          0.17905146	          0.20312553	          0.23696441	          0.29193840	          0.07529145	          0.26249722	          0.14700606	          0.15261199	          0.03470158	          0.15714584	          0.39440430	          0.06445819	          0.04224973	          0.01948958	          0.03283657	
          3.90000000	         -4.50056276	         -4.25518266	          6.85323560	          1.68379901	          1.07262891	         -0.02667701	         12.51292841	        -12.88612931	         -5.28231335	         15.40663093	         -3.90590566	         -6.66150055	         17.77955967	         16.58208285	        -33.07286350	        -26.95934258	         -7.51359038	          3.04190825	         -0.09947062	         -0.01565976	         -1.21223698	          1.53466197	          2.79409038	         32.56809384	        -53.04166632	         -2.22738217	         51.22672477	        -45.96247898	         17.66629059	        124.52580146	        119.92675657	         91.95647462	        100.39501222	          0.12405107	          0.11585445	          0.06537813	          0.05209201	          0.08714228	          0.16570275	          0.07532134	          0.24843096	          0.88421889	          0.42602929	          0.09223845	          0.12676866	          0.16693329	          0.18704561	          0.10309167	          0.06804332	          0.05496878	          0.08047107	          0.12201449	          0.15095478	          0.13050943	          0.16479058	          0.18713795	          0.16731846	          0.29775210	          0.69729310	          0.96728272	          0.27311517	          0.34463222	          0.14264361	          0.31568665	          0.06215602	          0.11517491	          0.03602148	          0.20379475	          0.27847150	          0.11909118	          0.03955393	          0.01753178	          0.03021423	          0.14753427	          0.15270017	          0.08530505	          0.06949518	          0.11120233	          0.16400050	          0.11264372	          0.24921746	          0.33686774	          0.22071805	          0.11528399	          0.08195721	          0.09239194	          0.06304566	          0.10813658	          0.06787086	          0.05886360	          0.11994028	          0.14178132	          0.15585262	          0.15544417	          0.17336605	          0.18339351	          0.17883908	          0.28839915	          0.19507975	          0.22570929	          0.26683635	          0.33403321	          0.05953769	          0.27510923	          0.16794517	          0.16384533	          0.02649392	          0.19558289	          0.43791028	          0.05401387	          0.03613001	          0.01735110	          0.02827574	
